#!OML:ASF F:\VICON\USERDATA\INSTALL\rory3\rory3.ASF
:FULLY-SPECIFIED
:DEGREES
236
root 0.371607 21.7915 6.5954 17.4126 -6.28912 -2.65878
lowerback -11.9628 1.53084 4.9716
upperback -7.48382 1.52332 1.10904
thorax -1.04795 0.613978 -1.47298
lowerneck -13.9925 -2.90293 -6.22018
upperneck 31.1786 -3.31794 2.37555
head 12.8752 -1.9121 1.49163
rclavicle -4.99446e-015 1.59028e-015
rhumerus -46.3254 6.20069 -83.7849
rradius 46.4609
rwrist 5.61744
rhand -24.604 -46.5858
rfingers 7.12502
rthumb 1.894 -76.5571
lclavicle -4.99446e-015 1.59028e-015
lhumerus -47.3714 -18.4136 92.9056
lradius 47.3657
lwrist 7.12067
lhand -33.8691 -37.0792
lfingers 7.12502
lthumb -7.05322 -7.21675
rfemur -27.0468 5.45418 15.3084
rtibia 33.0381
rfoot 20.5992 -6.44157
rtoes -22.9259
lfemur -26.925 0.802117 -12.0983
ltibia 30.835
lfoot 12.873 5.9292
ltoes -15.8201
237
root 0.379738 21.8657 6.5953 17.0334 -6.22194 -2.49585
lowerback -11.5777 1.41096 4.75219
upperback -7.34569 1.40615 1.14028
thorax -1.12012 0.564093 -1.33703
lowerneck -13.9559 -2.89844 -6.31477
upperneck 31.0824 -3.35533 2.58683
head 12.8349 -1.91151 1.58393
rclavicle -1.33186e-014 8.74653e-015
rhumerus -46.2376 6.01596 -83.6844
rradius 46.1545
rwrist 5.83736
rhand -23.2326 -48.9922
rfingers 7.12502
rthumb 3.21844 -78.9477
lclavicle -1.33186e-014 8.74653e-015
lhumerus -47.2706 -17.7321 92.7456
lradius 45.9926
lwrist 6.65326
lhand -33.7231 -36.1343
lfingers 7.12502
lthumb -6.91232 -6.26715
rfemur -26.7673 4.94338 15.3017
rtibia 33.6392
rfoot 19.8 -6.41729
rtoes -21.7483
lfemur -26.6099 0.661332 -12.393
ltibia 30.809
lfoot 13.2403 5.43401
ltoes -16.1374
238
root 0.386121 21.9356 6.59791 16.5681 -5.99244 -2.38018
lowerback -11.2596 1.25315 4.61822
upperback -7.11187 1.22225 1.17194
thorax -1.05793 0.481963 -1.25239
lowerneck -13.6871 -2.90406 -6.33946
upperneck 30.7393 -3.39515 2.66805
head 12.6398 -1.92032 1.61362
rclavicle -3.62285e-014 -1.07344e-014
rhumerus -46.3567 6.22143 -84.1669
rradius 45.4844
rwrist 2.3123
rhand -28.4876 -42.3691
rfingers 7.12502
rthumb -1.85682 -72.3407
lclavicle -3.62285e-014 -1.07344e-014
lhumerus -47.1168 -16.9549 92.4682
lradius 44.7345
lwrist 6.43214
lhand -33.305 -35.3656
lfingers 7.12502
lthumb -6.50863 -5.48561
rfemur -26.2932 4.49248 15.3578
rtibia 34.2153
rfoot 18.7561 -7.23366
rtoes -18.7111
lfemur -26.1893 0.313106 -12.5457
ltibia 30.7607
lfoot 13.54 5.48953
ltoes -15.7203
239
root 0.387681 21.9775 6.59306 16.1042 -6.1683 -2.30702
lowerback -10.4903 1.11211 4.272
upperback -7.14549 1.11251 1.32252
thorax -1.52205 0.432438 -0.925995
lowerneck -13.4271 -2.78717 -6.29438
upperneck 30.6732 -3.21988 2.55484
head 12.5448 -1.85432 1.59055
rclavicle -4.52235e-015 6.75868e-015
rhumerus -46.5665 5.52259 -83.4427
rradius 45.842
rwrist 6.00503
rhand -23.0821 -48.1339
rfingers 7.12502
rthumb 3.36385 -78.0871
lclavicle -4.52235e-015 6.75868e-015
lhumerus -47.3545 -15.8487 92.2641
lradius 43.4842
lwrist 6.31047
lhand -32.8156 -34.5528
lfingers 7.12502
lthumb -6.03622 -4.65879
rfemur -25.9739 4.55625 15.336
rtibia 34.7207
rfoot 18.0271 -7.34848
rtoes -17.3727
lfemur -25.6155 0.196412 -12.7101
ltibia 30.5296
lfoot 13.854 5.9412
ltoes -14.4052
240
root 0.386965 21.9955 6.57849 15.7302 -6.45411 -2.18306
lowerback -10.0005 1.04578 3.87196
upperback -7.00597 1.07929 1.40273
thorax -1.64838 0.430788 -0.628903
lowerneck -13.572 -2.71423 -6.09793
upperneck 30.6591 -3.09851 2.36966
head 12.5553 -1.80044 1.50213
rclavicle 7.30534e-015 -1.78906e-014
rhumerus -46.5366 5.33842 -83.3645
rradius 45.1736
rwrist 5.29931
rhand -25.2785 -45.4301
rfingers 7.12502
rthumb 1.24256 -75.4062
lclavicle 7.30534e-015 -1.78906e-014
lhumerus -47.1862 -14.9745 91.935
lradius 42.2052
lwrist 6.21348
lhand -32.4817 -34.2736
lfingers 7.12502
lthumb -5.71386 -4.37063
rfemur -25.8895 4.79377 15.2251
rtibia 35.1939
rfoot 17.5565 -7.14976
rtoes -17.2984
lfemur -25.1635 0.0837007 -12.9379
ltibia 30.2528
lfoot 14.219 6.03446
ltoes -13.843
241
root 0.392177 22.0316 6.58168 15.4029 -6.39139 -1.88776
lowerback -9.89177 0.906302 3.51361
upperback -6.78193 0.920681 1.37306
thorax -1.48073 0.367636 -0.473117
lowerneck -13.5637 -2.63969 -5.87799
upperneck 30.4165 -3.00994 2.25588
head 12.4425 -1.74776 1.43236
rclavicle -1.57288e-014 2.50469e-014
rhumerus -46.4037 5.04096 -83.3536
rradius 44.8038
rwrist 4.53976
rhand -25.4025 -45.3788
rfingers 7.12502
rthumb 1.12279 -75.3556
lclavicle -1.57288e-014 2.50469e-014
lhumerus -46.8854 -14.3569 91.6147
lradius 40.8947
lwrist 6.52632
lhand -32.1318 -33.8564
lfingers 7.12502
lthumb -5.37597 -3.94464
rfemur -25.7034 4.61715 14.9607
rtibia 35.5917
rfoot 16.6489 -7.76105
rtoes -15.0349
lfemur -24.6996 -0.222037 -13.3399
ltibia 29.9217
lfoot 14.4776 5.76745
ltoes -14.7357
242
root 0.400602 22.0461 6.58166 15.3146 -6.32957 -1.8373
lowerback -9.75711 0.810216 3.43128
upperback -6.74048 0.804948 1.39394
thorax -1.51534 0.312644 -0.416697
lowerneck -13.6491 -2.57431 -5.69347
upperneck 30.353 -2.94705 2.21666
head 12.4262 -1.70251 1.39372
rclavicle 3.85145e-015 -2.38542e-015
rhumerus -46.4894 4.79728 -83.4222
rradius 44.9704
rwrist 3.30828
rhand -24.1657 -47.761
rfingers 7.12502
rthumb 2.3173 -77.7282
lclavicle 3.85145e-015 -2.38542e-015
lhumerus -46.794 -13.7425 91.3565
lradius 39.642
lwrist 7.11843
lhand -31.8517 -33.647
lfingers 7.12502
lthumb -5.10555 -3.72852
rfemur -25.7348 4.49932 14.9
rtibia 35.8097
rfoot 15.7 -8.59292
rtoes -11.1785
lfemur -24.448 -0.39739 -13.4776
ltibia 29.6129
lfoot 14.6361 5.74913
ltoes -16.4773
243
root 0.403945 22.0454 6.57977 15.3609 -6.33813 -1.81124
lowerback -9.60552 0.723331 3.21816
upperback -6.87485 0.716606 1.48688
thorax -1.74417 0.273071 -0.210596
lowerneck -13.7238 -2.51922 -5.50665
upperneck 30.5104 -2.85628 2.02268
head 12.4948 -1.66724 1.30094
rclavicle 2.06239e-015 -2.50469e-014
rhumerus -46.7567 4.54296 -83.3498
rradius 44.7655
rwrist 3.02934
rhand -23.9643 -48.0846
rfingers 7.12502
rthumb 2.51188 -78.0495
lclavicle 2.06239e-015 -2.50469e-014
lhumerus -46.9383 -12.8373 91.08
lradius 38.4899
lwrist 7.28781
lhand -31.5497 -33.5129
lfingers 7.12502
lthumb -4.8139 -3.58759
rfemur -25.8647 4.37289 14.9402
rtibia 35.8492
rfoot 15.0613 -8.53491
rtoes -10.4795
lfemur -24.3491 -0.431989 -13.5896
ltibia 29.2463
lfoot 14.9472 6.24205
ltoes -16.5563
244
root 0.412172 22.0429 6.61834 15.5604 -5.91708 -2.06626
lowerback -10.4352 0.602626 3.51574
upperback -6.79823 0.490492 1.64296
thorax -1.21911 0.160278 -0.227549
lowerneck -13.6671 -2.47255 -5.51925
upperneck 30.5113 -2.77694 1.98501
head 12.4793 -1.6389 1.30098
rclavicle 2.48481e-017 -7.15625e-015
rhumerus -46.7996 4.1522 -83.0797
rradius 44.5184
rwrist 3.23366
rhand -23.6199 -48.1179
rfingers 7.12502
rthumb 2.84443 -78.0787
lclavicle 2.48481e-017 -7.15625e-015
lhumerus -46.8662 -11.938 90.7559
lradius 37.3761
lwrist 7.40562
lhand -30.9512 -32.1352
lfingers 7.12502
lthumb -4.23603 -2.1976
rfemur -25.7728 3.62265 15.4367
rtibia 35.7464
rfoot 14.2371 -8.09908
rtoes -11.2021
lfemur -24.3973 -0.566028 -13.3782
ltibia 29.0486
lfoot 15.0115 7.04104
ltoes -14.9428
245
root 0.414352 22.0224 6.62568 15.5824 -5.57041 -2.05496
lowerback -10.783 0.456555 3.44207
upperback -6.6635 0.281471 1.70602
thorax -0.895338 0.0645435 -0.138734
lowerneck -13.6638 -2.41929 -5.59775
upperneck 30.3429 -2.72777 2.15228
head 12.4112 -1.60248 1.38489
rclavicle 8.19987e-016 3.97569e-015
rhumerus -46.6155 3.63235 -82.7895
rradius 44.3715
rwrist 3.70438
rhand -22.7108 -48.782
rfingers 7.12502
rthumb 3.72235 -78.7292
lclavicle 8.19987e-016 3.97569e-015
lhumerus -46.4966 -11.3067 90.3871
lradius 36.2913
lwrist 7.63457
lhand -30.155 -31.592
lfingers 7.12502
lthumb -3.46711 -1.64049
rfemur -25.7155 3.19155 15.64
rtibia 35.684
rfoot 13.3139 -8.54986
rtoes -10.12
lfemur -24.4343 -0.80955 -13.393
ltibia 28.9052
lfoot 15.295 7.534
ltoes -14.5025
